<?xml version="1.0" standalone="no"?>
<!DOCTYPE svg PUBLIC "-//W3C//DTD SVG 20010904//EN"
 "http://www.w3.org/TR/2001/REC-SVG-20010904/DTD/svg10.dtd">
<svg version="1.0" xmlns="http://www.w3.org/2000/svg"
 width="1045.000000pt" height="1045.000000pt" viewBox="0 0 1045.000000 1045.000000"
 preserveAspectRatio="xMidYMid meet">
<metadata>
Created by potrace 1.11, written by Peter Selinger 2001-2013
</metadata>
<g transform="translate(0.000000,1045.000000) scale(0.100000,-0.100000)"
fill="#000000" stroke="none">
<path d="M7936 10011 c-4 -6 -28 -11 -53 -11 -148 0 -357 -142 -430 -292 -65
-133 -84 -271 -55 -398 7 -30 16 -68 19 -85 3 -16 10 -36 15 -42 13 -16 2 -20
-82 -27 -135 -12 -263 -103 -327 -234 -26 -54 -28 -65 -28 -187 0 -126 1 -132
32 -195 18 -36 38 -73 45 -82 10 -14 9 -21 -6 -37 -11 -12 -26 -21 -35 -21 -9
0 -65 49 -123 109 -135 136 -264 252 -303 271 -16 8 -42 22 -57 32 -14 10 -35
18 -46 18 -12 0 -24 5 -27 10 -3 6 -21 10 -39 10 -17 0 -38 6 -44 12 -17 17
-278 16 -294 0 -7 -7 -22 -12 -34 -12 -13 0 -26 -4 -29 -10 -7 -11 -48 -14
-43 -2 2 4 16 31 31 59 147 281 8 633 -288 726 -66 21 -269 47 -370 47 -234 0
-427 -138 -489 -349 -20 -68 -21 -227 -2 -297 22 -83 74 -170 137 -228 l57
-54 -37 -103 -37 -104 -45 -2 c-158 -9 -345 -28 -472 -49 -82 -14 -152 -24
-157 -22 -5 2 -74 97 -154 212 l-145 209 22 30 c88 117 112 191 105 324 -14
256 -194 415 -455 401 -84 -5 -103 -11 -393 -122 -354 -137 -367 -143 -431
-203 -188 -176 -165 -524 43 -666 77 -53 130 -69 248 -76 l104 -6 37 -245 c20
-135 36 -246 35 -247 0 -1 -68 -46 -151 -101 -181 -121 -327 -237 -473 -377
-60 -58 -113 -105 -116 -105 -11 0 -270 111 -282 121 -7 5 -14 50 -16 102 -3
78 -9 102 -36 158 -38 79 -109 149 -190 187 -52 25 -67 27 -182 27 -135 0
-174 -11 -264 -73 -45 -31 -306 -370 -347 -452 -17 -32 -33 -87 -39 -129 -27
-192 58 -364 219 -444 63 -31 70 -32 191 -32 116 0 129 2 184 28 48 22 62 25
71 15 7 -7 51 -59 98 -114 l86 -102 -30 -56 c-50 -92 -136 -290 -185 -425 -50
-137 -125 -419 -145 -544 -10 -64 -16 -81 -33 -88 -17 -7 -114 -31 -473 -114
-18 -4 -29 7 -68 65 -78 117 -179 182 -316 203 -238 37 -453 -105 -514 -338
-12 -48 -15 -126 -15 -401 0 -387 5 -420 77 -524 80 -115 189 -170 347 -178
231 -11 398 101 465 311 7 20 19 37 27 37 20 0 445 -99 470 -109 17 -8 24 -28
41 -119 24 -126 37 -157 75 -185 29 -22 100 -28 156 -14 28 8 32 6 32 -11 0
-11 6 -22 14 -25 8 -3 16 -30 20 -69 8 -66 35 -158 48 -158 4 0 -1 19 -11 43
-21 50 -36 141 -21 132 17 -11 49 -81 56 -122 7 -46 -5 -59 -74 -83 -32 -10
-54 -26 -70 -50 -39 -57 -28 -128 41 -273 l56 -119 -156 -176 c-87 -98 -162
-176 -168 -175 -5 1 -35 11 -65 22 -76 28 -234 29 -312 2 -160 -55 -263 -181
-289 -353 -13 -91 0 -197 35 -273 27 -59 202 -314 253 -368 l36 -38 -189 -192
c-137 -139 -197 -207 -217 -247 -15 -30 -27 -63 -27 -72 0 -9 -4 -20 -10 -23
-6 -3 -10 -48 -10 -100 0 -52 4 -97 10 -100 6 -3 10 -22 10 -40 0 -19 12 -56
26 -82 34 -61 158 -189 204 -209 19 -9 43 -20 52 -25 10 -5 36 -9 57 -9 22 0
43 -5 46 -10 8 -13 112 -13 120 0 3 6 24 10 46 10 21 0 47 4 57 9 9 5 31 15
47 22 69 31 159 116 749 708 l619 620 41 -31 c75 -56 280 -190 354 -230 46
-25 72 -46 72 -57 0 -38 -60 -552 -65 -561 -3 -6 -28 -10 -54 -10 -93 0 -213
-49 -292 -119 -158 -139 -202 -396 -103 -599 34 -69 119 -161 181 -194 26 -15
185 -77 353 -139 l305 -113 125 -1 c117 0 129 2 181 28 105 51 179 158 199
288 34 223 34 221 17 303 -21 101 -55 172 -117 239 l-48 53 157 245 c120 187
161 244 176 243 11 0 81 -9 155 -20 110 -15 193 -19 445 -19 322 1 419 9 660
56 55 10 105 19 112 19 7 0 80 -95 163 -210 l150 -211 -29 -37 c-155 -195
-123 -489 69 -633 78 -59 167 -82 288 -77 l97 5 318 128 c176 70 340 142 365
160 105 72 163 185 170 335 4 104 -15 183 -62 258 -79 125 -243 203 -398 189
-32 -3 -60 -2 -63 3 -2 4 -20 106 -40 226 -19 121 -37 229 -40 241 -4 19 13
34 127 112 171 115 320 235 461 371 l112 108 150 -67 150 -66 11 -80 c21 -138
63 -224 153 -308 89 -83 193 -120 335 -119 192 1 301 63 442 248 115 152 136
202 142 346 3 89 1 119 -17 176 -55 182 -201 306 -391 332 -77 11 -188 2 -244
-20 -15 -5 -31 -10 -36 -10 -9 0 -200 225 -200 236 0 3 31 70 70 147 38 78 92
198 119 267 l49 125 104 6 c57 4 174 8 262 10 l158 4 18 -57 c50 -160 172
-263 342 -289 188 -30 363 53 447 211 27 50 43 113 97 387 61 305 66 335 62
433 -3 91 -8 113 -33 165 -33 70 -100 144 -159 179 -102 59 -267 75 -384 35
-104 -35 -203 -124 -242 -219 -7 -17 -16 -30 -20 -30 -11 0 -443 190 -456 201
-7 6 -13 81 -17 212 -3 111 -13 258 -23 327 -25 180 -25 179 16 203 53 29 150
109 150 122 0 4 19 30 42 59 23 28 44 54 48 58 3 4 28 0 55 -8 116 -37 299
-14 407 49 157 92 251 304 220 499 -11 74 -110 355 -157 449 -53 104 -161 194
-276 230 -84 26 -234 26 -320 -1 -95 -29 -190 -97 -237 -168 -15 -23 -15 -23
-134 95 -66 65 -128 130 -139 145 l-20 27 88 83 c105 100 118 112 316 306 86
83 160 152 165 152 4 0 50 -43 102 -96 98 -102 215 -201 265 -226 71 -37 205
-69 280 -69 29 1 146 17 175 26 82 22 178 82 250 155 41 42 81 89 89 106 7 16
20 42 28 57 31 58 55 207 49 301 -3 49 -10 94 -15 99 -6 6 -11 21 -11 33 0 20
-73 172 -88 184 -4 3 -20 23 -36 45 -46 62 -1324 1335 -1381 1375 -79 55 -144
90 -168 90 -13 0 -27 4 -32 9 -6 5 -35 12 -65 15 -30 3 -74 8 -96 11 -26 4
-44 3 -48 -4z m139 -451 c10 -11 24 -20 30 -20 7 0 24 -15 38 -32 40 -51 121
-134 577 -594 536 -541 680 -695 697 -742 28 -80 9 -148 -56 -200 -36 -29 -47
-32 -104 -32 -55 0 -67 3 -87 25 -13 14 -28 25 -34 25 -6 0 -126 115 -266 255
l-256 256 -418 -416 c-230 -228 -425 -415 -434 -415 -21 0 -242 219 -242 240
0 8 190 205 422 437 l422 423 -250 252 c-137 139 -260 268 -272 286 -19 27
-23 46 -23 108 0 120 44 162 172 163 54 1 69 -3 84 -19z m-1771 -1105 c26 -8
62 -24 80 -34 41 -26 1890 -1879 1907 -1911 49 -96 33 -235 -34 -299 -50 -46
-115 -71 -187 -71 -61 0 -72 3 -126 39 -32 21 -104 84 -159 140 -55 55 -104
101 -110 101 -5 0 -825 -815 -1821 -1811 l-1811 -1811 -69 5 c-120 10 -390 43
-539 67 -33 5 -86 12 -118 16 -32 4 -60 11 -63 15 -3 5 -18 9 -35 9 -16 0 -37
4 -47 9 -29 14 -87 31 -110 31 -12 0 -36 8 -54 18 -18 10 -46 22 -62 26 -28 7
-57 -20 -770 -733 -492 -492 -750 -742 -768 -746 -36 -9 -48 0 -48 38 0 29 72
104 745 782 l744 749 -24 44 c-14 25 -25 53 -25 63 0 10 -4 20 -9 23 -5 3 -11
23 -14 43 -11 72 -18 108 -27 128 -9 21 -16 68 -26 190 -3 39 -10 74 -15 80
-5 5 -9 43 -9 86 0 42 -4 98 -9 125 -5 27 -11 111 -12 187 l-2 138 609 612
c335 337 1145 1151 1802 1810 l1193 1198 -43 47 c-24 26 -79 85 -123 131 -44
46 -84 93 -89 105 -37 85 -48 167 -26 181 6 3 10 15 10 26 0 59 94 149 156
149 13 0 26 5 29 10 9 14 52 12 109 -5z m-2037 -1390 c150 -28 300 -125 378
-243 l29 -43 -540 -540 c-601 -602 -543 -556 -638 -495 -225 145 -312 406
-225 675 99 310 395 573 719 642 106 22 176 23 277 4z m2582 -2250 c44 -22
109 -100 121 -144 21 -79 -18 -167 -100 -222 -77 -52 -146 -49 -227 10 -46 33
-93 118 -93 165 1 72 79 173 156 202 43 15 101 11 143 -11z m-4772 -457 c26
-28 44 -153 22 -146 -8 3 -16 20 -20 39 -3 20 -13 46 -22 59 -18 25 -23 70 -9
70 5 0 18 -10 29 -22z m-28 -52 c12 -18 21 -43 21 -55 0 -12 10 -35 21 -50 12
-16 19 -35 17 -42 -3 -10 -43 42 -57 76 -2 6 -12 21 -22 34 -20 25 -26 71 -10
71 5 0 19 -15 30 -34z m91 -271 c0 -8 -4 -15 -10 -15 -5 0 -10 7 -10 15 0 8 5
15 10 15 6 0 10 -7 10 -15z m3376 -974 c84 -38 145 -147 124 -221 -25 -89
-114 -163 -194 -163 -100 0 -206 104 -206 201 0 41 47 128 83 154 71 52 125
60 193 29z"/>
<path d="M5182 6242 c-17 -20 -45 -52 -61 -69 -16 -18 -36 -33 -45 -33 -19 0
-82 -62 -91 -90 -3 -11 -12 -20 -20 -20 -7 0 -386 -373 -841 -828 -456 -456
-839 -834 -851 -841 -13 -6 -23 -17 -23 -23 0 -6 -52 -63 -115 -126 l-115
-115 0 -83 c0 -45 5 -86 10 -89 6 -3 10 -37 10 -76 0 -39 4 -69 10 -69 6 0 10
-26 10 -59 0 -33 5 -63 10 -66 6 -3 10 -24 10 -46 0 -21 5 -39 10 -39 6 0 10
-18 10 -39 0 -22 5 -43 10 -46 6 -3 10 -14 10 -24 0 -28 22 -65 73 -120 26
-30 54 -51 66 -51 11 0 36 -9 56 -20 20 -11 51 -20 70 -20 19 0 35 -4 35 -10
0 -5 18 -10 39 -10 22 0 43 -4 46 -10 3 -5 33 -10 66 -10 33 0 59 -4 59 -10 0
-6 41 -10 104 -10 83 0 105 -3 110 -15 3 -10 19 -15 48 -15 l43 0 845 845
c465 464 846 851 848 860 2 8 9 15 16 15 14 0 116 101 116 116 0 12 39 49 57
55 20 7 113 99 113 113 0 15 30 44 63 60 12 7 28 24 35 39 7 15 20 27 28 27 8
0 17 8 21 18 3 9 17 29 31 44 l25 27 -35 33 c-19 18 -38 41 -41 51 -4 9 -12
17 -20 17 -15 0 -128 114 -146 148 -6 12 -17 22 -24 22 -15 0 -130 118 -147
150 -6 11 -16 20 -23 20 -15 0 -130 118 -147 150 -6 11 -16 20 -23 20 -15 0
-130 118 -147 150 -6 11 -17 20 -24 20 -7 0 -38 27 -69 60 -32 33 -60 60 -65
60 -4 -1 -22 -18 -40 -38z"/>
</g>
</svg>
